<?xml version="1.0" encoding="iso-8859-1"?>
<!-- Generator: Adobe Illustrator 19.0.0, SVG Export Plug-In . SVG Version: 6.00 Build 0)  -->
<svg xmlns="http://www.w3.org/2000/svg" xmlns:xlink="http://www.w3.org/1999/xlink" version="1.1" id="Capa_1" x="0px" y="0px" viewBox="0 0 512 512" style="enable-background:new 0 0 512 512;" xml:space="preserve" width="512px" height="512px">
<g>
	<g>
		<path d="M502,0h-1H10C4.478,0,0,4.478,0,10v48c0,5.522,4.478,10,10,10h74v65H64.435C42.966,133,25.5,150.495,25.5,172    s17.466,39,38.935,39H84v38H64.435C42.966,249,25.5,266.495,25.5,288s17.466,39,38.935,39H84v38H64.435    C42.966,365,25.5,382.495,25.5,404s17.466,39,38.935,39H84v59c0,5.522,4.478,10,10,10h40c5.522,0,10-4.478,10-10v-59h224v59    c0,5.522,4.478,10,10,10h40c5.522,0,10-4.478,10-10v-59h43c5.522,0,10-4.478,10-10c0-5.522-4.478-10-10-10h-43v-38h18.565    c21.469,0,38.935-17.495,38.935-39s-17.466-39-38.935-39H428v-25.227c5.587,3.163,12.478,5.106,20.858,5.106H502    c5.522,0,10-4.478,10-10V10C512,4.478,507.522,0,502,0z M84,423H64.435c-10.44,0-18.935-8.523-18.935-19s8.494-19,18.935-19H84    V423z M84,307H64.435c-10.44,0-18.935-8.523-18.935-19s8.494-19,18.935-19H84V307z M84,191H64.435    c-10.44,0-18.935-8.523-18.935-19s8.494-19,18.935-19H84V191z M476.857,20L450.5,46.357L424.143,20H476.857z M395.858,20    l40.5,40.5L390.5,106.357L344.643,60.5l40.5-40.5H395.858z M356.857,20L330.5,46.357L304.143,20H356.857z M275.858,20l40.5,40.5    L270.5,106.357L224.643,60.5l40.5-40.5H275.858z M285.093,149.199c-9.341,0.254-18.762,0.502-27.956-1.171    c2.314-2.319,10.011-12.593,13.38-12.917c0.088-0.009,0.174-0.01,0.256-0.005C274.229,135.337,282.51,146.625,285.093,149.199z     M256.357,120.5l-14.787,14.788c-6.325-9.881-7.955-21.764-8.197-23.834c-0.046-5.521-0.783-10.922-2.163-16.1L256.357,120.5z     M236.857,20L210.5,46.357L184.143,20H236.857z M218.287,133H144V68c17.895,0,36.782-2.501,51.964,8.947    c8.765,6.662,14.6,16.485,16.606,27.28C214.41,114.129,214.639,123.332,218.287,133z M20,48V20h15.857l28,28H20z M90.5,46.357    L64.143,20h52.714L90.5,46.357z M124,492h-20V68h20V492z M117.143,48l28-28h10.715l30.178,30.178    C180.666,48.737,175.081,48,169.38,48H117.143z M368,423H144v-38h224V423z M368,365H144v-38h224V365z M368,307H144v-38h224V307z     M368,249H144v-38h224V249z M368.001,191H144v-38h85.95c1.369,1.559,2.842,3.061,4.443,4.476l0.001,0.001    c8.832,7.805,19.657,11.763,32.177,11.763c0,0,101.171,0.047,101.43,0.082V191z M347.617,149.24h-34.234l-28.74-28.74    L330.5,74.643l45.857,45.857L347.617,149.24z M388,492V175.764c0.193,0.104,0.386,0.2,0.579,0.307    c12.941,7.188,19.232,18.02,19.232,33.115L408,492H388z M397.594,158.205c-8.555-4.624-17.101-6.902-22.663-7.993l15.569-15.569    l45.857,45.857l-10.955,10.955C421.266,177.236,411.854,165.913,397.594,158.205z M446.565,327c10.44,0,18.935,8.523,18.935,19    s-8.494,19-18.935,19H428v-38H446.565z M448.858,266.879c-19.743,0-20.996-18.281-21.047-21.879v-27.669l22.688-22.688l41.5,41.5    v30.736H448.858z M492,207.857L464.643,180.5L492,153.143V207.857z M492,124.858l-41.5,41.5L404.643,120.5L450.5,74.643l41.5,41.5    V124.858z M492,87.858L464.643,60.5L492,33.143V87.858z" fill="#094a9d"/>
	</g>
</g>
<g>
</g>
<g>
</g>
<g>
</g>
<g>
</g>
<g>
</g>
<g>
</g>
<g>
</g>
<g>
</g>
<g>
</g>
<g>
</g>
<g>
</g>
<g>
</g>
<g>
</g>
<g>
</g>
<g>
</g>
</svg>
